<?xml version="1.0" standalone="no"?>
<!DOCTYPE svg PUBLIC "-//W3C//DTD SVG 20010904//EN"
 "http://www.w3.org/TR/2001/REC-SVG-20010904/DTD/svg10.dtd">
<svg version="1.0" xmlns="http://www.w3.org/2000/svg"
 width="1024.000000pt" height="1024.000000pt" viewBox="0 0 1024.000000 1024.000000"
 preserveAspectRatio="xMidYMid meet">
<metadata>
Created by potrace 1.14, written by Peter Selinger 2001-2017
</metadata>
<g transform="translate(0.000000,1024.000000) scale(0.100000,-0.100000)"
fill="#000000" stroke="none">
<path d="M0 5120 l0 -5120 5120 0 5120 0 0 5120 0 5120 -5120 0 -5120 0 0
-5120z m6598 3973 c-303 -350 -633 -788 -792 -1053 -69 -115 -176 -312 -164
-300 3 3 41 50 86 105 300 375 735 671 1272 865 l85 30 -110 -101 c-197 -182
-607 -600 -769 -784 -186 -211 -419 -499 -573 -710 -129 -177 -337 -484 -332
-490 3 -2 74 -13 159 -25 85 -12 157 -24 159 -26 2 -2 -1 -23 -7 -46 -53 -212
6 -439 166 -639 100 -124 198 -201 419 -328 615 -352 910 -601 1155 -976 327
-499 448 -1111 332 -1685 -134 -667 -578 -1241 -1189 -1535 -363 -175 -751
-260 -1240 -272 -649 -16 -1119 74 -1534 293 -618 327 -1039 867 -1165 1494
-63 311 -57 729 13 1024 76 316 266 660 505 914 27 29 47 54 45 56 -2 2 -44
34 -94 72 -240 181 -499 408 -627 549 -139 154 -194 258 -251 475 -26 100 -30
133 -30 255 -1 157 12 231 63 364 160 414 661 696 1115 627 284 -43 509 -194
682 -457 155 -237 184 -370 184 -841 l1 -268 133 91 c146 98 201 152 247 243
114 225 86 526 -82 875 -33 68 -60 126 -60 130 0 3 16 18 35 34 l35 28 211
-141 c116 -78 212 -140 214 -138 2 2 15 73 29 159 61 362 185 747 367 1142 74
160 199 401 205 395 2 -2 -41 -180 -96 -396 -55 -215 -100 -395 -100 -399 0
-4 25 37 56 92 235 418 579 797 1069 1176 196 152 205 158 173 122z"/>
<path d="M4570 6886 c0 -4 13 -32 29 -64 58 -114 133 -304 146 -370 32 -160
27 -345 -14 -451 -9 -25 -41 -82 -70 -124 -97 -145 -235 -274 -426 -398 l-93
-61 -6 -82 c-11 -135 -26 -280 -52 -502 -13 -116 -24 -218 -24 -227 0 -12 39
9 133 71 73 48 177 114 232 147 142 86 219 165 283 292 49 95 154 393 197 556
30 114 28 67 -5 -102 -78 -406 -171 -614 -327 -729 -37 -27 -171 -120 -298
-207 -126 -87 -231 -158 -232 -159 -1 -1 -8 -43 -14 -94 -7 -51 -17 -92 -22
-92 -5 0 -33 16 -63 36 l-54 36 -58 -50 c-106 -92 -266 -266 -328 -357 -109
-160 -188 -326 -251 -528 -67 -216 -5 -539 176 -912 151 -313 301 -533 563
-832 143 -163 237 -224 452 -294 105 -35 327 -92 332 -86 3 2 -24 14 -58 27
-118 43 -312 149 -418 228 -367 276 -559 625 -599 1087 -24 282 57 539 245
774 117 145 259 261 463 377 145 82 245 164 318 259 64 83 149 251 198 390 39
111 38 81 -2 -65 -33 -119 -72 -214 -120 -293 -53 -89 -182 -215 -288 -282
-182 -116 -230 -152 -327 -244 -261 -248 -417 -543 -418 -787 0 -323 218 -771
529 -1083 107 -108 157 -145 269 -201 123 -61 431 -159 465 -147 6 2 -10 15
-34 29 -167 98 -276 267 -396 615 l-48 138 1 195 c1 218 19 336 75 481 39 102
84 169 213 318 76 89 119 149 149 209 l42 85 3 1642 2 1641 -217 91 c-260 110
-253 107 -253 99z"/>
<path d="M5060 4063 c0 -1440 4 -2613 9 -2608 15 18 58 139 84 240 66 253 93
533 84 845 -6 203 -14 256 -80 595 -25 127 -48 259 -51 295 -6 55 2 35 54
-140 144 -488 168 -601 177 -845 6 -171 -24 -545 -57 -705 -23 -111 -76 -228
-148 -322 -28 -38 -46 -68 -41 -68 6 0 52 42 102 93 178 179 257 365 321 757
38 234 49 364 50 600 1 240 -1 257 -81 560 -51 198 -85 277 -178 426 -149 237
-164 293 -172 619 -3 127 -3 228 0 225 3 -3 15 -95 27 -205 30 -285 35 -302
146 -498 149 -261 211 -410 279 -671 72 -274 87 -440 65 -711 -40 -485 -131
-821 -285 -1050 -24 -37 -38 -61 -29 -54 30 25 144 206 188 299 61 129 88 216
130 412 135 626 169 1058 112 1388 -79 455 -162 692 -396 1129 -158 296 -167
319 -195 510 -20 132 -45 420 -44 501 1 51 5 29 20 -95 23 -195 64 -445 85
-516 9 -29 70 -152 136 -273 398 -730 478 -994 495 -1636 6 -259 -3 -388 -43
-610 -43 -233 -159 -659 -217 -798 -19 -45 -31 -80 -26 -77 15 10 116 169 152
240 47 95 70 173 111 382 164 841 163 1666 -4 2310 -68 260 -139 417 -348 760
-59 98 -125 208 -145 245 -109 196 -142 395 -125 748 5 107 7 209 3 226 -5 27
-14 34 -78 62 -39 18 -75 32 -79 32 -5 0 -8 -1178 -8 -2617z m67 1715 c-2 -18
-4 -4 -4 32 0 36 2 50 4 33 2 -18 2 -48 0 -65z"/>
<path d="M3043 6545 c-253 -78 -331 -402 -141 -581 59 -56 88 -72 159 -90 227
-58 442 124 427 360 -10 150 -103 267 -248 310 -64 19 -139 20 -197 1z"/>
<path d="M3218 4702 c-284 -301 -421 -578 -483 -977 -22 -144 -31 -454 -16
-600 68 -658 588 -1338 1244 -1626 82 -36 310 -119 326 -119 3 0 -30 20 -74
43 -174 92 -271 177 -429 373 -284 355 -503 769 -592 1122 -69 274 -68 382 5
601 110 330 291 602 546 825 l73 64 -136 93 c-75 52 -192 133 -260 182 -68 48
-127 87 -131 87 -5 0 -38 -31 -73 -68z"/>
<path d="M5022 3354 c-21 -83 -65 -164 -168 -316 -156 -229 -215 -373 -233
-572 -18 -189 14 -350 120 -592 57 -131 112 -228 173 -306 44 -56 112 -115
121 -106 3 3 4 441 3 974 -3 821 -5 961 -16 918z"/>
</g>
</svg>
